<?xml version="1.0" encoding="utf-8"?>
<!-- Generator: Adobe Illustrator 15.0.2, SVG Export Plug-In . SVG Version: 6.00 Build 0)  -->
<!DOCTYPE svg PUBLIC "-//W3C//DTD SVG 1.1//EN" "http://www.w3.org/Graphics/SVG/1.1/DTD/svg11.dtd">
<svg version="1.1" id="Ebene_1" xmlns="http://www.w3.org/2000/svg" xmlns:xlink="http://www.w3.org/1999/xlink" x="0px" y="0px"
	 width="75.257px" height="149.292px" viewBox="0 0 75.257 149.292" enable-background="new 0 0 75.257 149.292"
	 xml:space="preserve">
<g>
	<polygon fill="#FFFFFF" points="57.627,81.49 66.729,77.49 66.977,104.49 66.22,119.798 63.284,119.798 57.627,103.052 	"/>
	<polygon fill="#FFFFFF" points="16.282,101.615 8.5,107.33 10.186,119.854 12.391,118.99 	"/>
	<g>
		<path fill="#FFFFFF" d="M9.481,79.291c0,9.563,0.144,19.35,0.471,29.059c1.5-1.773,5.3-3.836,5.747-6.031
			c0.716-3.513,1.053-7.077,1.164-10.657c0.127-4.08-0.135-7.76-0.439-11.844c-0.311-4.179-0.414-8.647-1.78-12.645
			c-0.812-2.377-1.744-4.714-2.688-7.041c-0.724-1.786-0.757-2.764-2.552-3.452C9.443,64.216,9.481,71.753,9.481,79.291
			C9.481,79.324,9.481,71.337,9.481,79.291z"/>
		<path fill="#020204" d="M9.866,108.595C9.29,91.17,9.405,73.98,9.31,56.541c3.113,1.189,3.925,6.436,4.998,9.396
			c1.633,4.507,1.875,9.32,2.225,14.068c0.327,4.433,0.578,8.321,0.381,12.821c-0.081,1.867-0.227,3.731-0.468,5.585
			c-0.172,1.322-0.154,3.903-0.889,5.02c-0.528,0.804-2.099,1.544-2.838,2.205C11.696,106.55,10.745,107.542,9.866,108.595
			L9.866,108.595z M9.491,84.417c-0.311,7.851,0.287,15.836,0.547,23.686c0.988-1.148,2.068-2.219,3.23-3.19
			c1.558-1.304,2.146-1.517,2.537-3.633c0.628-3.404,0.897-6.854,0.984-10.311c0.093-3.721-0.161-7.072-0.434-10.812
			c-0.312-4.274-0.401-8.863-1.799-12.952c-0.811-2.372-1.741-4.705-2.682-7.028c-0.592-1.462-0.744-2.919-2.373-3.361
			c0.025,4.899,0.045,9.798,0.06,14.697c0.008,2.688,0.014,5.376,0.014,8.063C9.575,81,9.879,83.28,9.491,84.417
			C9.415,86.343,9.491,84.417,9.491,84.417z"/>
	</g>
	<g>
		<path fill="#FFFFFF" d="M19.637,2.765c-0.699,0.453-1.92,0.884-2.468,0.112C17.795,2.435,20.223,2.429,19.637,2.765
			C19.26,3.009,19.77,2.688,19.637,2.765z"/>
		<path fill="#020204" d="M17.76,3.401c-1.562,0,0.034-1.021,0.538-1.145C20.807,1.637,19.505,3.401,17.76,3.401
			C17.678,3.401,18.415,3.401,17.76,3.401z M17.292,2.905c0.359,0.598,2.523,0.126,2.313-0.511
			C18.81,2.254,17.959,2.451,17.292,2.905C17.379,3.05,17.5,2.764,17.292,2.905z"/>
	</g>
	<g>
		<path fill="#FFFFFF" d="M37.351,2.595c1.319-0.005,6.903-0.697,7.142,0.98c-4.625-0.154-9.24,0.05-13.85-0.02
			C30.902,1.94,36.095,2.595,37.351,2.595C37.351,2.595,35.033,2.595,37.351,2.595z"/>
		<path fill="#020204" d="M30.659,3.671C30.447,1.792,36.072,2.5,37.587,2.5c1.356,0,6.895-0.81,7.048,1.169
			C39.962,3.566,35.332,3.493,30.659,3.671L30.659,3.671z M31.026,2.912c-0.082,0.188-0.164,0.377-0.246,0.565
			c4.534-0.163,9.035-0.165,13.569,0C43.745,1.665,32.854,2.771,31.026,2.912C31.026,2.912,31.051,2.91,31.026,2.912z"/>
	</g>
	<g>
		<path fill="#959798" d="M37.84,2.595c-4.77-0.019-9.218,0.581-13.909,1.305c-3.444,0.531-6.961,1.188-10.134,2.684
			c-1.976,0.931-3.707,2.316-4.961,4.116C8.347,11.4,7.94,12.163,7.661,12.971c-0.346,0.998-0.736,0.862-1.347,1.665
			C6.75,8.202,11.159,4.577,17.094,2.84c5.951-1.741,12.572-2.457,18.747-2.699c7.553-0.295,14.854,1.295,22.225,2.689
			c5.997,1.134,10.419,5.75,10.812,11.806c-1.152-0.315-1.092-1.103-1.474-2.052c-0.766-1.898-2.329-3.876-4.103-4.92
			C60.187,5.512,56.148,4.7,52.476,4.092C47.566,3.28,42.856,2.595,37.84,2.595C37.84,2.595,40.16,2.595,37.84,2.595z"/>
		<path fill="#020204" d="M6.208,14.9C6.488,8.575,10.926,4.236,16.97,2.771C23.845,1.105,31.08,0,38.167,0
			c6.748,0,13.33,1.491,19.925,2.739c6.067,1.147,10.606,5.907,10.888,12.065c-1.16-0.664-1.119-0.65-1.533-1.832
			c-0.671-1.909-2.034-3.518-3.583-4.783c-3.085-2.424-7.312-3.307-11.097-3.953C47.161,3.28,41.712,2.568,35.985,2.708
			C31.237,2.824,26.667,3.48,21.994,4.31c-3.643,0.647-7.473,1.553-10.508,3.766c-1.535,1.119-2.853,2.746-3.576,4.508
			c-0.142,0.347-0.21,1.114-0.427,1.4C7.263,14.274,6.514,14.483,6.208,14.9L6.208,14.9z M67.909,13.972
			c0.237,0.209,0.586,0.336,0.862,0.494C68.288,8.457,63.852,4.022,57.928,2.9C51.386,1.662,44.86,0.188,38.167,0.188
			c-5.114,0-10.194,0.72-15.231,1.544c-1.856,0.304-3.946,0.471-5.72,1.156C11.476,5.104,7.047,7.717,6.429,14.378
			c2.007-1.998,2.742-4.95,5.408-6.791c3.062-2.127,7.038-2.946,10.654-3.555c4.765-0.802,9.388-1.459,14.23-1.528
			c5.064-0.072,9.771,0.579,14.73,1.328C57.521,4.779,66.612,6.652,67.909,13.972C67.909,13.972,67.733,12.98,67.909,13.972z"/>
	</g>
	<g>
		<path fill="#FFFFFF" d="M24.274,3.839c-0.02,0-0.039,0-0.057,0C24.235,3.857,24.254,3.857,24.274,3.839z"/>
		<path fill="#020204" d="M24.245,3.948C23.533,3.948,24.955,3.948,24.245,3.948C24.221,3.948,24.269,3.948,24.245,3.948z
			 M24.245,3.76C24.109,3.76,24.38,3.76,24.245,3.76C24.225,3.76,24.264,3.76,24.245,3.76z"/>
	</g>
	<g>
		<path fill="#FFFFFF" d="M24.217,3.857L24.217,3.857C24.198,3.857,24.217,3.857,24.217,3.857z"/>
		<path fill="#020204" d="M24.217,3.951C24.205,3.77,24.202,3.727,24.217,3.951L24.217,3.951z"/>
	</g>
	<g>
		<path fill="#FFFFFF" d="M48.148,4.649c2.087-1.684,5.794-0.378,8.111,0.188c1.986,0.485,3.976,1.101,5.788,2.062
			c1.513,0.803,1.165,1.174,1.102,2.799C59.091,6.476,53.002,5.657,48.148,4.649C48.148,4.649,58.042,6.703,48.148,4.649z"/>
		<path fill="#020204" d="M63.236,9.888c-4.101-3.332-10.34-4.163-15.291-5.185c2.132-1.921,6.073-0.521,8.514,0.088
			c2.168,0.541,4.369,1.234,6.292,2.398C63.725,7.779,63.28,8.742,63.236,9.888L63.236,9.888z M48.369,4.599
			c4.797,0.999,10.644,1.829,14.692,4.912c0.04-1.04,0.398-1.685-0.52-2.227c-1.572-0.929-3.325-1.542-5.076-2.032
			C55.076,4.582,50.627,2.971,48.369,4.599C56.913,6.378,48.69,4.367,48.369,4.599z"/>
	</g>
	<g>
		<path fill="#FFFFFF" d="M24.274,3.839c0.991-0.155,2.014,0.199,2.788,0.811c-4.838,0.991-11.031,1.794-15.038,5.088
			c-0.016-0.411-0.301-1.794-0.15-2.073c1.455-1.006,3.139-1.666,4.817-2.193C18.984,4.75,21.837,3.839,24.274,3.839
			C25.837,3.595,24.254,3.839,24.274,3.839z"/>
		<path fill="#020204" d="M11.938,9.931c-0.021-0.547-0.305-1.996-0.117-2.344c2.033-1.406,4.494-2.178,6.87-2.771
			c2.436-0.609,6.412-2.035,8.578-0.112C22.359,5.703,15.952,6.517,11.938,9.931L11.938,9.931z M12.01,7.685
			c0.065,0.598,0.078,1.245,0.102,1.861c3.995-3.152,9.95-3.965,14.728-4.947c-1.667-1.165-3.77-0.502-5.596-0.151
			C18.09,5.053,14.706,5.861,12.01,7.685C12.01,7.685,15.552,5.288,12.01,7.685z"/>
	</g>
	<g>
		<path fill="#FFFFFF" d="M67.841,14.976c-1.408-0.496-2.197-2.493-3.061-3.588c-1.207-1.529-1.848-1.702-1.48-3.706
			C65.255,9.109,68.446,12.382,67.841,14.976L67.841,14.976z"/>
		<path fill="#020204" d="M67.93,15.279c-1.317-1.014-2.145-2.456-3.188-3.789c-1.202-1.535-2.153-1.866-1.47-3.944
			C65.503,9.063,68.468,12.264,67.93,15.279L67.93,15.279z M63.263,9.693c1.41,1.124,2.812,4.832,4.538,5.185
			c0.136-2.778-2.369-5.615-4.467-7.054C63.311,8.447,63.287,9.07,63.263,9.693C64.276,10.501,63.263,9.693,63.263,9.693z"/>
	</g>
	<g>
		<path fill="#FFFFFF" d="M7.313,15.013c-0.215-2.768,2.349-6.027,4.579-7.331c0.459,1.947-0.274,2.24-1.432,3.72
			C9.58,12.528,8.771,14.529,7.313,15.013C7.295,14.787,7.313,15.013,7.313,15.013z"/>
		<path fill="#020204" d="M7.231,15.16c-0.11-1.608,0.632-3.231,1.536-4.519c0.284-0.404,3.265-3.653,3.3-2.746
			c0.019,0.494,0.255,1.45,0.072,1.903c-0.283,0.702-1.632,1.671-2.115,2.347C9.267,13.205,8.552,14.72,7.231,15.16L7.231,15.16z
			 M7.402,14.88c1.118-0.563,1.758-1.848,2.466-2.839c0.325-0.456,2.092-2.04,2.074-2.471c-0.023-0.588-0.047-1.176-0.071-1.764
			C9.672,9.186,7.356,12.142,7.402,14.88C7.402,14.88,7.399,14.707,7.402,14.88z"/>
	</g>
	<g>
		<path id="www.ABC-color.com_2_" fill="#D8D9DA" d="M59.267,65.742c1.834-4.202,3.433-8.573,4.632-12.998
			c0.208-0.77,1.785-5.785,0.987-6.314c-2.208-1.466-4.596-2.764-7.084-3.683c-10.886-4.018-24.436-3.517-35.607-1.214
			c-2.457,0.506-4.807,1.096-7.089,2.18c-1.489,0.708-4.977,1.784-4.85,3.69c0.347,5.223,2.526,10.497,4.424,15.319
			c0.472,1.198,1.076,3.899,2.601,4.119c1.893,0.271,4.566-1.111,6.477-1.401c4.207-0.64,8.499-0.9,12.752-0.962
			c2.951-0.042,5.906,0.092,8.848,0.306c2.707,0.197,5.422,0.466,8.087,0.992C55.062,66.096,58.272,67.919,59.267,65.742
			C60.04,63.972,58.475,67.476,59.267,65.742z M37.182,37.287c5.916-0.02,11.903,0.711,17.684,1.955
			c3.318,0.715,7.548,2.024,9.656,4.911c2.965,4.062,0.034,9.992-1.461,14.098c-0.945,2.597-2.331,9.892-5.961,9.206
			c-6.874-2.648-15.436-2.672-22.774-2.32c-5.176,0.248-10.758,0.455-15.7,2.147c-3.99,1.366-5.241-5.659-6.253-8.411
			c-1.77-4.81-5.794-13.364,0.475-16.718C20.103,38.273,29.053,37.287,37.182,37.287C37.182,37.287,30.04,37.287,37.182,37.287z"/>
		<path fill="#020204" d="M58.029,67.71c-1.954,0-4.174-1.105-6.134-1.426c-2.877-0.47-5.787-0.733-8.695-0.923
			c-2.532-0.164-5.054-0.286-7.589-0.187c-5.114,0.201-10.386,0.486-15.367,1.734c-1.825,0.458-4.033,1.714-5.077-0.707
			c-0.832-1.928-1.597-3.886-2.34-5.849c-1.514-4.002-4.732-10.177-3.141-14.537c1.322-3.62,5.696-5.439,9.129-6.32
			c11.768-3.018,24.199-2.883,36.03-0.355c6.142,1.312,12.413,4.491,10.648,11.771c-0.903,3.725-2.292,7.347-3.683,10.912
			C61.189,63.416,60.271,67.71,58.029,67.71C57.9,67.71,58.645,67.71,58.029,67.71z M57.133,67.369c1.551,0,2.269-0.12,2.913-1.67
			c0.768-1.846,1.506-3.703,2.215-5.571c1.445-3.807,4.354-9.398,3.292-13.587c-0.979-3.86-5.346-5.792-8.824-6.756
			c-5.745-1.593-12.042-2.297-17.986-2.397c-5.936-0.102-11.935,0.631-17.747,1.81c-3.364,0.682-7.613,1.846-9.914,4.599
			c-3.317,3.968-0.496,9.83,1,14c0.515,1.435,3.156,11.491,6.032,9.573c5.897-2.271,13.227-2.438,19.5-2.438
			C43.893,64.931,51.231,65.095,57.133,67.369C57.134,67.369,57.133,67.369,57.133,67.369z M17.571,66.955
			c-2.663,0-4.266-7.573-4.88-9.361c-0.792-2.302-4.285-10.121-1.693-11.729c10.415-6.463,24.544-6.968,36.418-5.39
			c5.832,0.775,11.262,2.059,16.345,5.135c1.592,0.963,1.383,1.374,1.083,3.312c-0.423,2.738-1.251,5.418-2.131,8.038
			c-0.741,2.206-1.556,4.387-2.421,6.547c-0.426,1.063-0.898,3.097-2.201,3.395c-1.642,0.377-4.265-0.984-5.914-1.257
			c-2.857-0.471-5.752-0.714-8.641-0.882c-2.933-0.17-5.866-0.244-8.802-0.143c-2.771,0.096-5.542,0.269-8.297,0.571
			c-1.548,0.169-3.094,0.379-4.622,0.683C20.466,66.143,18.937,66.955,17.571,66.955C17.016,66.955,18.122,66.955,17.571,66.955z
			 M10.327,46.515c-0.116,5.193,2.341,10.784,4.186,15.536c0.515,1.328,1.255,4.716,3.059,4.716c2.338,0,5.079-1.29,7.463-1.598
			c7.431-0.959,14.962-0.996,22.417-0.303c2.616,0.244,5.264,0.551,7.807,1.229c0.763,0.204,1.605,0.663,2.411,0.663
			c1.391,0,1.772-1.644,2.195-2.68c2.076-5.086,4.303-10.57,4.907-16.069c0.115-1.043,0.243-1.403-0.632-1.948
			c-1.091-0.681-2.212-1.315-3.36-1.896c-2.677-1.352-5.438-2.077-8.358-2.663c-5.977-1.201-12.068-1.639-18.157-1.396
			C25.918,40.439,17.391,41.833,10.327,46.515C10.213,51.578,10.822,46.187,10.327,46.515z"/>
	</g>
	<g>
		<path fill="#FFFFFF" d="M10.252,46.447c9.122-6.042,20.952-6.986,31.63-6.407c5.685,0.309,12.193,0.968,17.466,3.313
			c1.239,0.551,4.924,1.801,5.609,3.094c0.082,2.556-0.701,5.183-1.417,7.606c-0.76,2.573-1.656,5.105-2.616,7.609
			c-0.481,1.255-1.146,4.338-2.483,5.011c-1.37,0.689-4.201-0.785-5.593-1.036c-2.881-0.519-5.81-0.776-8.73-0.957
			c-7.368-0.456-15.012-0.364-22.262,1.076c-1.376,0.274-4.29,1.847-5.506,0.564c-1.045-1.103-1.521-3.276-2.049-4.645
			C12.506,57.019,10.107,51.534,10.252,46.447C10.252,46.447,10.102,51.722,10.252,46.447z"/>
		<path fill="#020204" d="M57.693,66.937c-2.13,0-4.643-1.211-6.81-1.512c-2.804-0.39-5.632-0.603-8.458-0.742
			c-2.42-0.118-4.84-0.171-7.263-0.094c-4.995,0.158-10.207,0.367-15.054,1.669c-2.023,0.543-3.499,1.227-4.51-1.127
			c-0.897-2.09-1.712-4.218-2.475-6.36c-0.708-1.989-4.668-11.301-2.446-12.712c4.805-3.051,9.85-4.492,15.418-5.361
			c11.911-1.859,26.556-1.659,37.199,4.604c1.925,1.133,1.928,1.281,1.569,3.604c-0.423,2.738-1.252,5.418-2.132,8.038
			C62.131,58.731,60.374,66.937,57.693,66.937C57.168,66.937,58.216,66.937,57.693,66.937z M38.67,64.365
			c4.096,0.124,8.192,0.312,12.255,0.877c2.15,0.299,4.656,1.508,6.767,1.508c1.952,0,2.983-4.661,3.516-6.088
			c0.888-2.378,5.596-12.967,2.948-14.618c-5.148-3.211-10.625-4.559-16.577-5.367c-11.732-1.594-25.759-1.18-36.119,5.117
			c-0.894,0.544-1.166,0.561-1.088,1.65c0.082,1.155,0.3,2.3,0.557,3.427c0.659,2.891,1.6,5.719,2.611,8.503
			c0.695,1.912,1.429,3.813,2.231,5.684c1.133,2.64,3.282,1.214,5.419,0.746C26.884,64.555,32.854,64.365,38.67,64.365
			C38.799,64.369,38.67,64.365,38.67,64.365z"/>
	</g>
	<g>
		<path fill="#C0C1C3" d="M67.464,53.871c0.725-0.628,4.859,1.323,5.672,1.714c0.588,0.282,1.474,0.646,1.847,1.217
			c0.123,0.188,0.416,1.479-0.066,1.377C72.686,57.707,65.836,57.6,67.464,53.871C67.595,53.757,67.464,53.871,67.464,53.871z"/>
		<path fill="#020204" d="M75.091,58.312c-2.416-0.515-8.622-0.424-7.89-4.139C68.053,52.829,76.414,55.669,75.091,58.312
			L75.091,58.312z M67.384,54.22c-0.649,3.448,5.329,3.406,7.6,3.875C75.95,55.708,67.833,53.257,67.384,54.22
			C67.328,54.521,67.464,54.048,67.384,54.22z"/>
	</g>
	<g>
		<path fill="#FFFFFF" d="M66.221,55.566c0-0.504-0.066-2.501,0.951-1.875c0.364,0.224,0.038,1.523,0.254,2.119
			C67.1,55.81,66.277,56.229,66.221,55.566C66.221,55.378,66.277,56.226,66.221,55.566z"/>
		<path fill="#020204" d="M66.739,56.035c-1.336,0-0.521-3.76,0.876-2.182c-0.41,0.638-0.361,1.346-0.055,2.051
			C67.297,55.953,67.008,56.035,66.739,56.035C66.24,56.035,67.026,56.035,66.739,56.035z M66.874,53.619
			c-0.871,0.41-1.054,2.568,0.431,2.131C67.008,54.873,67.574,54.074,66.874,53.619C66.704,53.699,66.874,53.619,66.874,53.619z"/>
	</g>
	<g>
		<path fill="#FFFFFF" d="M8.971,55.566c-0.044,0.51-0.694,0.381-0.994,0.299c-0.275-0.075,0.079-1.209-0.08-1.637
			c0.057-0.12-0.235-0.765,0.433-0.715C9.029,53.859,9.048,54.9,8.971,55.566C8.915,56.226,8.991,55.396,8.971,55.566z"/>
		<path fill="#020204" d="M8.463,56.035c-1.477,0-0.221-1.232-0.904-2.174C8.988,52.253,9.771,56.035,8.463,56.035
			C8.135,56.035,8.953,56.035,8.463,56.035z M7.921,55.751c1.273,0.4,1.165-0.991,0.759-1.82C7.851,52.6,7.964,55.617,7.921,55.751
			C8.04,55.789,8.118,55.125,7.921,55.751z"/>
	</g>
	<g>
		<path fill="#C0C1C3" d="M8.5,55.982c1.359,0-0.333-2.63,0.207-3.299c0.965,1.141,1.573,3.094,2.035,4.504
			C9.922,56.932,9.18,56.506,8.5,55.982C9.047,55.982,8.5,55.982,8.5,55.982z"/>
		<path fill="#020204" d="M10.895,57.345c-0.981-0.303-1.872-0.809-2.664-1.459c1.231,0.078,0.821-1.982,0.003-2.279
			c0.082-0.339,0.244-0.829,0.445-1.104C9.715,53.886,10.314,55.726,10.895,57.345L10.895,57.345z M8.742,56.044
			c0.566,0.413,1.167,0.771,1.839,0.98c-0.534-1.38-1.036-2.907-1.85-4.15C8.446,53.485,9.938,55.682,8.742,56.044
			C8.983,56.22,8.838,56.015,8.742,56.044z"/>
	</g>
	<g>
		<path fill="#C0C1C3" d="M66.729,55.982c-0.686,0.53-1.437,0.94-2.261,1.205c0.463-1.412,1.105-3.362,2.071-4.504
			C67.055,53.333,65.35,55.982,66.729,55.982C66.729,55.982,66.165,55.982,66.729,55.982z"/>
		<path fill="#020204" d="M64.314,57.347c0.57-1.604,1.197-3.499,2.255-4.844c0.185,0.312,0.373,0.771,0.46,1.123
			c-0.839,0.202-1.236,2.323-0.029,2.26C66.2,56.544,65.302,57.039,64.314,57.347L64.314,57.347z M66.517,52.875
			c-0.818,1.247-1.334,2.767-1.884,4.146c0.672-0.217,1.284-0.561,1.854-0.977C65.296,55.701,66.758,53.468,66.517,52.875
			C66.015,53.64,66.517,52.875,66.517,52.875z"/>
	</g>
	<g>
		<path fill="#FFFFFF" d="M58.363,82.57c-0.11,0,1.368-12.353,1.619-13.423c0.675-2.88,1.925-5.676,3.029-8.41
			c0.757-1.875,0.888-3.312,2.776-4.04c-0.579,7.452-0.06,15.134-0.038,22.594"/>
		<path fill="#020204" d="M58.288,82.626c-0.709-0.945,0.429-5.373,0.564-6.612c0.35-3.206,0.753-6.383,1.824-9.437
			c0.941-2.683,2.009-5.321,3.096-7.948c0.587-1.42,0.689-1.529,2.122-2.075c-0.482,7.528-0.071,15.202-0.049,22.736
			c-0.063,0-0.125,0-0.188,0c-0.023-7.465-0.284-14.988,0.029-22.451c-1.829,0.461-2.197,2.957-2.834,4.548
			c-1.074,2.683-2.285,5.424-2.883,8.262c-0.559,2.654-0.835,5.375-1.099,8.071C58.751,78.921,59,81.747,58.288,82.626
			C58.229,82.548,58.288,82.626,58.288,82.626z"/>
	</g>
	<g>
		<path fill="#D8D9DA" d="M19.637,98.947c0.159-5.714,0.109-11.444-0.179-17.153c-0.236-4.689-0.409-9.695-1.913-14.187
			c1.701-0.176,3.439-0.992,5.15-1.294c2.259-0.399,4.544-0.652,6.83-0.846c2.678-0.227,5.382-0.423,8.071-0.423
			c2.692,0,5.4,0.196,8.08,0.423c2.288,0.193,4.575,0.446,6.837,0.846c1.701,0.3,3.425,1.108,5.114,1.294
			c-1.98,5.958-1.924,12.792-2.087,19c-0.048,1.816,0.27,19.629,0.446,19.6c-6.083,1.004-12.259,1.123-18.409,1.123
			c-6.2,0-12.43-0.124-18.562-1.148c0.278-0.264,0.238-1.674,0.275-2.014C19.481,102.434,19.591,100.691,19.637,98.947
			C19.883,90.089,19.524,103.242,19.637,98.947z"/>
		<path fill="#020204" d="M40.005,107.453c-7.068,0-14.186-0.015-21.175-1.207c1.108-2.495,0.702-6.313,0.752-9.008
			c0.066-3.587,0.052-7.177-0.042-10.763c-0.163-6.262-0.222-12.921-2.113-18.948c3.809-0.647,7.43-1.724,11.336-2.082
			c2.927-0.269,5.889-0.494,8.831-0.494c2.721,0,5.459,0.203,8.168,0.435c4.138,0.354,7.953,1.388,11.981,2.142
			c-2.731,8.745-2.274,18.9-2.18,27.957c0.028,2.662,0.105,5.319,0.353,7.972c0.072,0.772,0.796,2.729-0.13,2.877
			C50.588,107.163,45.265,107.453,40.005,107.453C38.637,107.453,41.271,107.453,40.005,107.453z M37.766,107.236
			c2.368,0.431,5.261,0.015,7.646-0.111c2.768-0.126,5.534-0.337,8.284-0.685c0.781-0.099,1.561-0.209,2.337-0.337
			c-0.097-0.668-0.172-1.339-0.241-2.01c-0.275-2.689-0.374-5.386-0.409-8.087C55.319,91.003,55.388,85.995,55.664,81
			c0.242-4.373,0.383-9.139,1.845-13.314c-3.953-0.626-7.713-1.768-11.77-2.113c-2.701-0.23-5.43-0.434-8.143-0.434
			c-2.709,0-5.435,0.203-8.132,0.434c-2.27,0.194-4.54,0.445-6.785,0.842c-1.69,0.3-3.338,1.023-5.012,1.273
			c2.056,5.807,1.905,12.718,2.063,18.792c0.165,6.347,0.692,13.375-0.608,19.624C25.276,107.122,31.542,107.274,37.766,107.236
			C37.777,107.238,37.766,107.236,37.766,107.236z"/>
	</g>
	<g>
		<path fill="#FFFFFF" d="M5.863,73.298c0-0.45,0.866-0.449,0.866,0c0.145,0.176,0,1.147,0,1.358c0,0.757,0.441,3.271,0,3.88
			c0,0.426-0.866,0.431-0.866,0c-0.148-0.204,0-1.122,0-1.358C5.863,75.885,5.863,74.591,5.863,73.298
			C5.863,73.111,5.863,73.298,5.863,73.298z"/>
		<path fill="#020204" d="M6.295,78.953c-0.947,0-0.944-6.088,0-6.088S7.247,78.953,6.295,78.953
			C6.167,78.953,6.577,78.953,6.295,78.953z M6.295,73.054c-0.624,0-0.629,5.709,0,5.709C6.924,78.763,6.919,73.054,6.295,73.054
			C6.118,73.054,6.477,73.054,6.295,73.054z"/>
	</g>
	<g>
		<path id="ABC-color.com_2_" fill="#FFFFFF" d="M68.916,72.96c0.785,0,0.791,5.896,0,5.896
			C68.189,78.857,68.194,72.96,68.916,72.96C69.141,72.96,68.69,72.96,68.916,72.96z"/>
		<path fill="#020204" d="M68.916,78.953c-0.886,0-0.879-6.088,0-6.088C69.862,72.865,69.864,78.953,68.916,78.953
			C68.645,78.953,69.045,78.953,68.916,78.953z M68.916,73.054c-0.737,0-0.408,6.111,0.244,5.635
			C69.635,78.333,69.4,73.054,68.916,73.054C68.747,73.054,69.095,73.054,68.916,73.054z"/>
	</g>
	<g>
		<path fill="#FFFFFF" d="M6.314,103.486c0-0.449,0.83-0.454,0.83,0c0.16,0.18,0,1.3,0,1.522c0,0.705,0.419,3.135,0,3.698
			c0,0.449-0.811,0.459-0.811,0c-0.166-0.223,0-1.262,0-1.522C6.333,105.965,6.377,104.67,6.314,103.486
			C6.314,103.298,6.314,103.486,6.314,103.486z"/>
		<path fill="#020204" d="M6.749,109.14c-0.75,0-0.985-5.466-0.379-5.965C7.423,102.308,7.91,109.14,6.749,109.14
			C6.593,109.14,7.022,109.14,6.749,109.14z M6.427,103.4c0,0.712-0.355,5.553,0.321,5.553c0.601,0,0.301-2.538,0.301-2.856
			C7.049,105.973,6.885,102.424,6.427,103.4C6.427,103.4,6.472,103.304,6.427,103.4z"/>
	</g>
	<g>
		<path fill="#FFFFFF" d="M68.068,103.486c0-0.438,0.827-0.458,0.827,0c0.159,0.177,0,1.302,0,1.522c0,0.7,0.418,3.141,0,3.698
			c0,0.467-0.827,0.438-0.827,0c-0.166-0.221,0-1.264,0-1.522C68.068,105.952,68.068,104.718,68.068,103.486
			C68.068,103.298,68.068,103.486,68.068,103.486z"/>
		<path fill="#020204" d="M68.501,109.14c-0.949,0-0.949-6.088,0-6.088C69.385,103.052,69.38,109.14,68.501,109.14
			C68.215,109.14,68.625,109.14,68.501,109.14z M68.501,103.242c-0.488,0-0.725,5.284-0.238,5.637
			C68.966,109.388,69.197,103.242,68.501,103.242C68.32,103.242,68.67,103.242,68.501,103.242z"/>
	</g>
	<g>
		<path fill="#D8D9DA" d="M17.207,107.972c0.653-2.425,2.332-1.685,4.227-1.444c3.751,0.476,7.54,0.716,11.319,0.803
			c4.918,0.112,9.896,0.082,14.801-0.226c2.667-0.167,5.334-0.411,7.975-0.819c2.069-0.319,2.402,1.231,2.841,2.951
			c1.187,4.653,2.358,9.353,3.071,14.105c0.559,3.724-0.14,7.05-4.096,8.385c-3.34,1.127-7.092,1.274-10.575,1.471
			c-7.179,0.403-14.447,0.404-21.613-0.241c-2.591-0.233-5.509-0.415-7.924-1.496c-4.701-2.104-3.723-6.875-2.94-11.004
			C15.087,116.269,16.034,112.072,17.207,107.972C17.659,106.294,16.678,109.82,17.207,107.972z M57.703,130.886
			c4.778-2.317,3.204-7.035,2.341-11.309c-0.49-2.428-1.03-4.845-1.593-7.256c-0.34-1.458-0.47-3.765-1.337-5.043
			c-0.667-0.981-2.85-0.229-3.732-0.125c-3.848,0.448-7.713,0.692-11.586,0.782c-4.793,0.112-9.574,0.061-14.363-0.256
			c-2.627-0.174-5.256-0.415-7.863-0.792c-1.556-0.226-1.76,0.999-2.071,2.277c-1.115,4.577-2.161,9.205-2.854,13.866
			c-0.536,3.604-0.111,7.032,3.848,8.245c3.795,1.162,8,1.263,11.927,1.424c6.466,0.266,12.993,0.244,19.442-0.328
			C52.406,132.147,55.341,131.995,57.703,130.886C58.947,130.283,56.458,131.47,57.703,130.886z"/>
		<path fill="#020204" d="M37.635,133.544c-5.639-0.028-11.408-0.083-16.979-1.07c-2.909-0.515-6.066-1.489-6.959-4.708
			c-1.11-4,0.864-9.37,1.771-13.254c0.443-1.9,0.908-3.796,1.408-5.683c0.683-2.576,1.517-2.807,3.965-2.475
			c5.828,0.789,11.656,0.812,17.521,0.893c3.37,0.047,6.743-0.06,10.105-0.297c2.624-0.186,5.374-0.887,7.991-0.887
			c2.287,0,3.239,8.188,3.568,9.636c0.835,3.679,2.853,9.103,1.304,12.812c-1.126,2.698-4.113,3.502-6.717,3.963
			C49.042,133.461,43.273,133.516,37.635,133.544C37.635,133.544,51.887,133.472,37.635,133.544z M18.756,106.246
			c-2.323,0-3.738,11.086-4.077,12.753c-0.891,4.385-2.496,9.803,2.425,12.298c2.425,1.128,5.368,1.317,7.985,1.557
			c7.197,0.657,14.5,0.657,21.71,0.246c3.513-0.2,7.362-0.327,10.715-1.532c3.923-1.41,4.363-4.795,3.8-8.434
			c-0.696-4.495-1.792-8.938-2.905-13.346c-0.251-0.996-0.474-2.94-1.474-3.429c-0.676-0.329-1.825,0.088-2.519,0.183
			c-1.669,0.227-3.346,0.396-5.025,0.528c-4.953,0.391-9.931,0.417-14.897,0.383c-3.448-0.024-6.903-0.202-10.336-0.529
			C22.396,106.755,20.522,106.246,18.756,106.246C18.092,106.246,18.843,106.246,18.756,106.246z M38.029,132.941
			c-5.63,0.014-11.405-0.033-16.973-0.985c-3.502-0.599-6.997-2.033-6.798-6.304c0.217-4.674,1.508-9.415,2.549-13.957
			c0.307-1.34,0.441-3.191,1.158-4.402c0.718-1.212,4.12-0.177,5.183-0.067c10.766,1.104,22.11,1.098,32.82-0.506
			c2.235-0.334,3.17,8.165,3.483,9.594c0.728,3.322,3.379,10.338,0.535,13.242c-1.509,1.542-3.921,2.056-5.959,2.397
			C48.767,132.833,43.348,132.906,38.029,132.941C38.029,132.941,51.726,132.849,38.029,132.941z M18.959,106.876
			c-1.944,0-3.102,10.015-3.378,11.407c-0.712,3.584-2.792,9.836,1.267,12.184c2.462,1.424,5.73,1.573,8.481,1.817
			c6.743,0.599,13.58,0.601,20.338,0.273c3.727-0.181,7.84-0.259,11.405-1.519c4.248-1.501,4.076-4.869,3.405-8.661
			c-0.828-4.682-1.892-9.337-3.059-13.944c-0.495-1.953-1.543-1.495-3.128-1.297c-3.801,0.476-7.622,0.751-11.451,0.865
			c-3.09,0.092-6.18,0.134-9.27,0.044c-3.532-0.104-7.059-0.283-10.574-0.647C21.691,107.263,20.27,106.876,18.959,106.876
			C18.605,106.876,19.173,106.876,18.959,106.876z"/>
	</g>
	<g>
		<path fill="#FFFFFF" d="M14.362,126.496c-0.456-4.134,1.249-9.059,2.137-13.052c0.384-1.726,0.773-3.451,1.213-5.163
			c0.46-1.791,1.415-1.461,2.834-1.277c11.248,1.448,23.19,1.466,34.434-0.062c1.32-0.179,2.109-0.302,2.513,1.32
			c0.474,1.906,0.921,3.82,1.356,5.736c0.895,3.94,2.932,9.287,2.153,13.369c-0.587,3.077-4.112,3.982-6.76,4.44
			c-5.521,0.955-11.243,1.001-16.827,1.001c-5.447,0-11.032-0.071-16.417-1.001C17.848,131.263,14.772,130.221,14.362,126.496
			C14.042,123.593,14.681,129.398,14.362,126.496z"/>
		<path fill="#020204" d="M38.031,132.904c-5.631,0.015-11.406-0.032-16.974-0.985c-3.514-0.602-6.986-2.004-6.803-6.285
			c0.199-4.662,1.498-9.399,2.541-13.927c0.311-1.348,0.448-3.219,1.177-4.434c0.728-1.211,4.106-0.177,5.178-0.066
			c10.757,1.104,22.138,1.12,32.838-0.505c2.126-0.322,2.801,6.613,3.087,7.88c0.855,3.79,2.747,8.839,2.025,12.765
			c-0.542,2.949-3.737,3.96-6.3,4.452C49.317,132.849,43.591,132.875,38.031,132.904C38.031,132.904,51.74,132.832,38.031,132.904z
			 M18.963,106.857c-1.952,0-3.112,10.037-3.389,11.432c-0.735,3.698-2.828,10.02,1.51,12.277c2.627,1.367,5.999,1.501,8.877,1.734
			c6.802,0.553,13.694,0.554,20.506,0.189c3.515-0.188,7.45-0.266,10.793-1.53c4.376-1.656,3.836-5.301,3.129-9.14
			c-0.834-4.527-1.87-9.026-2.979-13.494c-0.47-1.893-1.595-1.394-3.098-1.202c-3.801,0.484-7.624,0.745-11.453,0.859
			c-3.097,0.094-6.194,0.135-9.291,0.045c-3.532-0.104-7.059-0.284-10.574-0.648C21.693,107.245,20.271,106.857,18.963,106.857
			C18.614,106.857,19.176,106.857,18.963,106.857z"/>
	</g>
	<g>
		<path fill="#C0C1C3" d="M69.331,85.142c0-1.132,0-2.263,0-3.395c0-0.592,0-1.185,0-1.777c0-0.481-0.829-0.565-0.829-0.066
			c-0.385,0.559,0,2.719,0,3.395c0,0.592,0,1.185,0,1.777C68.501,85.554,69.331,85.598,69.331,85.142
			C69.331,85.142,69.331,85.236,69.331,85.142z M6.277,85.462c0.792,0,0.786-5.898,0-5.898C5.492,79.564,5.486,85.462,6.277,85.462
			C6.502,85.462,6.164,85.462,6.277,85.462z M8.971,123.179c-0.103-0.723-0.17-1.506-0.981-1.506c-1.879,0-1.266,2.068-1.042,3.452
			c0.112,0.698,0.632,2.604,1.803,1.32C9.433,125.698,9.082,124.015,8.971,123.179C8.746,121.595,9.178,124.744,8.971,123.179z
			 M37.596,133.468c5.696-0.029,11.543-0.063,17.167-1.098c2.807-0.517,5.817-1.517,6.69-4.601
			c1.143-4.035-0.988-9.641-1.906-13.559c-0.438-1.869-0.895-3.734-1.377-5.593c-0.553-2.131-1.995-1.919-2.211-3.835
			c-0.708-6.269-0.583-12.666-0.395-18.962c0.17-5.686,0.223-11.762,1.78-17.276c0.382-1.354,0.595-0.519,1.674-1.156
			c0.696-0.412,0.95-1.246,1.243-1.949c0.901-2.157,1.753-4.336,2.562-6.529c1.48-4.018,4.544-10.085,2.016-14.219
			c-1.88-3.075-6.142-4.542-9.445-5.292c-5.87-1.333-11.997-2.074-18.016-2.074c-6.035,0-12.259,0.781-18.129,2.191
			c-3.328,0.8-7.626,2.422-9.238,5.733c-2.048,4.21,1.075,10.316,2.55,14.273c0.741,1.986,1.516,3.96,2.333,5.916
			c0.293,0.703,0.547,1.537,1.244,1.949c1.298,0.767,1.354-0.118,1.802,1.622c1.456,5.669,1.53,11.798,1.68,17.614
			c0.159,6.182,0.322,12.509-0.472,18.654c-0.149,1.156-0.062,0.569-0.945,1.02c-0.817,0.415-0.99,1.515-1.203,2.323
			c-0.491,1.86-0.951,3.729-1.392,5.601c-0.929,3.947-3.013,9.482-1.894,13.552c0.858,3.118,3.898,4.077,6.718,4.59
			C26.058,133.388,31.899,133.432,37.596,133.468C52.559,133.392,22.671,133.375,37.596,133.468z M16.754,82.57
			c-0.356-5.085-0.557-10.52-2.202-15.378c-1.028-3.038-2.248-6.015-3.479-8.975c-0.734-1.765-1.228-4.063-2.459-5.515
			c-0.305,1.654-3.631,1.243-3.638,0.541c-0.017-1.83-0.034-3.66-0.051-5.49c-0.023-2.489-0.05-4.979-0.04-7.468
			c0.011-2.698-0.515-26.691,2.447-26.384c-0.077,0.367-0.108,0.737-0.093,1.111c1.44-0.617,2.205-2.46,3.127-3.638
			c1.333-1.701,3.073-2.663,4.989-3.56c3.627-1.697,7.742-2.37,11.632-3.167c-0.776-0.605-1.799-0.966-2.789-0.81
			c2.003-0.326,4.739-1.35,6.746-1.037c-0.154,0.211-0.17,0.521-0.32,0.735c4.613,0.058,9.224-0.135,13.851,0.019
			c-0.149-0.222-0.164-0.539-0.321-0.754c1.871,0.187,5.221-0.037,6.804,1.037c-1.005-0.18-2.046,0.181-2.826,0.81
			c3.791,0.78,7.84,1.418,11.384,3.06c1.727,0.799,3.414,1.608,4.708,3.055c1.147,1.282,1.988,3.567,3.637,4.25
			c0.023-0.328,0.005-0.654-0.056-0.979c2.529,0.883,1.935,7.444,2.041,9.583c0.239,4.822,0.321,9.652,0.357,14.479
			c0.042,5.458,0.013,10.917,0.013,16.375c-1.215-0.348-3.409-0.264-3.693-1.809c-1.049,1.24-1.526,3.191-2.146,4.68
			c-1.008,2.418-1.985,4.852-2.903,7.307c-1.976,5.289-2.54,10.716-2.989,16.317c-0.435,5.417-0.364,10.961,0.234,16.357
			c0.506,4.557,1.592,8.974,3.037,13.318c0.768,2.311,1.162,5.095,2.75,7.015c1.086-2.51,0.734-5.716,0.734-8.387
			c-0.254-0.28,0.083-2.631,0.094-3.08c0.042-1.598,0.084-3.194,0.125-4.792c0.146-5.638,0.607-11.388,0.333-17.024
			c-0.319-6.573-0.091-13.209-0.086-19.788c0.002-2.602-0.168-5.361,0.08-7.927c0.076-0.03-0.371,0.129-0.452,0.168
			c0.482-0.246,0.943-0.542,1.376-0.867c-0.613,0-0.603-0.598-0.547-1.035c0,1.515,1.075,0.459,1.262,1.057
			c0.393,1.25,2.261,0.515,2.789,1.244c0.349,0.481,0,2.517,0,3.086c0,4.217,0,8.434,0,12.65c0,4.512-0.104,9.022-0.178,13.533
			c-0.242,14.9,0.564,30.166-1.804,44.912c-0.24,1.495-0.502,2.987-0.803,4.471c-0.162,0.795-0.334,1.588-0.531,2.375
			c-0.093,0.119-0.724-0.262-0.942,0.096c-0.817,1.39-1.053,2.952-2.104,4.249c-1.382,1.704-3.05,2.423-5.133,2.968
			c-2.952,0.741-6.024,1.045-9.055,1.238c-1.118,0.071-1.843-0.477-2.869-0.448c-6.375,0.179-12.659,0.164-19.034-0.016
			c-0.288-0.008-0.625,0.397-0.958,0.471c-0.726,0.159-1.655-0.022-2.377-0.079c-3.518-0.272-7.258-0.614-10.539-1.998
			c-1.541-0.649-2.868-2.118-3.559-3.633c-0.376-0.765-0.727-3.128-1.904-2.898c-0.573,0.111-1.59-7.04-1.748-8.121
			c-1.199-8.227-1.197-16.408-1.378-24.714c-0.208-9.519-0.265-19.042-0.4-28.562c-0.052-3.655-0.017-7.312-0.017-10.969
			c0-2.567,0-5.136,0-7.704c0-1.29,0.117-0.997,1.559-1.332c0.72-0.167,0.895-0.824,1.306-1.026
			c0.666-0.328,1.206,0.573,1.206-0.811c0.057,0.426,0.061,0.979-0.526,0.979c0.434,0.336,0.902,0.641,1.394,0.885
			c-0.163-0.062-0.326-0.125-0.489-0.188C9.379,66.317,9.242,76,9.317,85.673c0.043,5.629,0.228,11.259,0.386,16.885
			c0.062,2.237,0.161,4.475,0.172,6.713c0,2.653-0.322,5.899,0.735,8.387c1.21-1.467,1.756-3.598,2.251-5.396
			c0.664-2.409,1.555-4.745,2.158-7.177c1.569-6.329,1.826-12.71,1.847-19.198 M16.868,85.886l-0.113-3.316"/>
		<path fill="#020204" d="M26.36,146.953c-3.816,0-8.14-0.542-11.747-1.835c-1.924-0.69-3.511-2.091-4.371-3.979
			c-0.459-0.932-0.706-3.211-2.092-2.764c-4.103-16.031-2.948-33.117-3.177-49.544c-0.072-5.164-0.186-10.329-0.186-15.494
			c0-3.927,0-7.853,0-11.778c0-1.383,0-2.766,0-4.148c0-1.176,2.738-0.136,2.875-1.768c0.784,0.354,1.196,0.171,1.196-0.678
			c0.062-0.005,0.125-0.009,0.188-0.014c0.049,0.37,0.075,0.918-0.38,1.057c0.378,0.277,0.777,0.523,1.195,0.736
			c-0.025,0.058-0.051,0.116-0.076,0.174c-0.121-0.047-0.241-0.094-0.361-0.141c0.05,9.742-0.112,19.494-0.01,29.233
			c0.06,5.705,0.238,11.41,0.399,17.113c0.123,4.339-0.797,10.33,0.824,14.349c1.621-2.149,2.137-5.28,2.962-7.809
			c1.204-3.687,2.1-7.487,2.603-11.335c0.7-5.367,0.818-10.965,0.413-16.373c-0.383-5.105-0.647-10.455-2.353-15.318
			c-1.509-4.304-3.081-9.867-5.625-13.743c-0.363,2.008-2.607,0.524-3.754,0.627c-0.051-5.506-0.124-11.009-0.066-16.515
			c0.05-4.679,0.14-9.36,0.388-14.034c0.099-1.855-0.431-8.788,2.239-9.154c-0.07,0.344-0.11,0.692-0.119,1.045
			c1.368-0.183,2.632-3.202,3.447-4.122c1.383-1.563,3.235-2.443,5.112-3.269c3.412-1.502,7.255-2.128,10.878-2.873
			c-0.732-0.507-1.653-0.809-2.55-0.667c-0.01-0.062-0.02-0.125-0.03-0.187c2.237-0.374,4.623-1.032,6.896-1.017
			c-0.153,0.209-0.168,0.518-0.318,0.729c4.535-0.157,9.034-0.154,13.569-0.001c-0.15-0.226-0.169-0.542-0.325-0.764
			c2.182,0.213,5.538,0.014,7.373,1.315c-1.057-0.267-2.146-0.043-3.028,0.589c3.64,0.751,7.513,1.376,10.935,2.901
			c1.844,0.822,3.655,1.684,5.023,3.217c0.796,0.893,2.128,4.004,3.468,4.146c-0.002,0.058-0.016-0.765-0.099-1.01
			c2.662,1.522,2.076,6.312,2.225,9.102c0.258,4.84,0.345,9.69,0.389,14.536c0.051,5.702,0.02,11.406,0.02,17.108
			c-1.15-0.34-3.494-0.264-3.811-1.744c-2.565,3.91-4.128,9.431-5.646,13.78c-1.702,4.878-1.972,10.232-2.354,15.351
			c-0.426,5.715-0.261,11.645,0.566,17.307c0.517,3.537,1.368,6.979,2.468,10.378c0.821,2.534,1.321,5.65,2.946,7.806
			c0.962-2.372,0.752-5.513,0.703-8.031c-0.702-1.563,0.103-5.068,0.15-6.877c0.154-5.925,0.428-11.868,0.374-17.796
			c-0.085-9.294-0.442-18.67-0.041-27.972c-0.099,0.039-0.199,0.078-0.298,0.117c-0.026-0.058-0.052-0.116-0.078-0.174
			c0.408-0.214,0.8-0.454,1.176-0.721c-0.473-0.142-0.445-0.729-0.396-1.109c0.062,0.004,0.125,0.008,0.187,0.012
			c0,0.889,0.381,1.105,1.222,0.732c0.043,1.213,2,1.248,2.878,1.439c-0.371,2.646-0.047,5.564-0.047,8.238
			c0,3.404,0,6.809,0,10.213c0,5.539-0.18,11.085-0.27,16.624c-0.248,15.357,0.703,31.177-3.076,46.204
			c-1.356-0.442-2.656,3.923-3.581,4.897c-2.12,2.234-5.556,2.691-8.478,3.103c-4.109,0.578-7.608,0.06-11.67,0.173
			c-2.468,0.069-4.932,0.181-7.401,0.112c-1.843-0.052-3.687-0.104-5.53-0.155c-0.75-0.021-1.501-0.042-2.252-0.063
			C27.415,146.425,27.078,146.951,26.36,146.953C26.286,146.953,27.186,146.951,26.36,146.953z M8.74,138.074
			c0.88,0,1.375,2.379,1.673,2.984c0.591,1.296,1.645,2.439,2.797,3.264c3.259,1.622,7.18,1.982,10.755,2.28
			c0.948,0.079,2.794,0.535,3.587-0.28c0.113-0.019,0.31-0.074,0.516-0.068c1.981,0.056,3.962,0.112,5.943,0.168
			c2.753,0.078,5.47,0.047,8.225-0.029c4.44-0.123,8.202,0.424,12.642-0.201c3.267-0.46,6.801-0.998,8.962-3.727
			c0.911-1.15,1.34-2.49,1.883-3.828c0.208-0.515,0.571-0.645,1.11-0.5c0.257-1.041,0.475-2.091,0.677-3.144
			c0.812-4.226,1.703-8.687,1.885-12.985c0.268-6.322,0.184-12.68,0.285-19.007c0.216-13.612,0.443-27.215,0.443-40.829
			c0-1.473,0-2.945,0-4.419c0-0.271,0.108-0.491-0.173-0.553c-1.023-0.226-2.457-1.229-3.149-1.188
			c-1.593,0.379-0.983,3.212-0.989,4.382c-0.043,9.22,0.213,18.413,0.053,27.622c-0.099,5.675-0.255,11.349-0.405,17.022
			c-0.104,3.933,0.735,9.17-0.93,12.798c-1.631-2.015-2.064-4.763-2.864-7.166c-1.13-3.398-2.05-6.823-2.631-10.359
			c-0.969-5.9-1.174-12.121-0.74-18.093c0.362-4.979,0.571-10.286,2.177-15.046c0.978-2.898,2.126-5.743,3.286-8.573
			c0.828-2.023,1.473-4.377,2.794-6.114c0.277,1.646,2.281,1.493,3.571,1.865c0-5.334,0.026-10.668-0.013-16.002
			c-0.034-4.647-0.112-9.298-0.323-13.942c-0.082-1.811,0.446-9.582-1.859-10.192c0.042,0.316-0.05,0.704,0.009,1.01
			c-1.468-0.825-2.228-2.463-3.256-3.767c-1.445-1.833-3.354-2.834-5.442-3.77c-3.532-1.583-7.552-2.214-11.312-2.983
			c0.624-0.565,1.441-0.945,2.288-0.999c-1.937-0.417-3.942-0.595-5.91-0.793c0.145,0.218,0.161,0.526,0.312,0.739
			c-2.358-0.055-4.716-0.171-7.076-0.171c-2.281,0-4.805,0.431-7.037,0.102c0.099-0.228,0.198-0.456,0.297-0.684
			c-1.855,0.14-3.716,0.552-5.55,0.859c0.717,0.126,1.402,0.464,1.945,0.945c-3.745,0.766-7.726,1.404-11.254,2.951
			c-2.126,0.932-4.084,1.959-5.538,3.827c-1.023,1.316-1.79,2.886-3.242,3.744c0.073-0.375-0.009-0.827,0.057-1.215
			c-2.418,0.717-1.841,9.108-1.921,10.984c-0.209,4.898-0.284,9.803-0.312,14.705c-0.013,2.387,0.005,4.771,0.027,7.158
			c0.019,2.024,0.037,4.049,0.056,6.072c0.01,1.083,3.23,1.335,3.518-0.406c1.104,1.468,1.618,3.377,2.324,5.06
			c1.247,2.969,2.467,5.956,3.533,8.995c1.045,2.979,1.449,6.069,1.794,9.198c0.202,1.828,1.068,5.133,0.518,6.794
			c0.33,0.818,0.198,2.796,0.206,3.514c-0.013,4.427-0.055,8.857-0.708,13.245c-0.575,3.866-1.537,7.661-2.796,11.358
			c-0.816,2.395-1.237,5.135-2.869,7.148c-1.489-3.271-0.753-7.725-0.862-11.271c-0.149-4.889-0.28-9.779-0.392-14.669
			c-0.182-7.984-0.02-15.97-0.049-23.956c-0.009-2.612-0.021-5.224-0.033-7.836c-0.003-0.722,0.381-2.852-0.017-3.491
			c-1.109-0.674-0.911-0.827-1.821-0.087c-0.356,0.289-2.437,0.576-2.437,0.786c0,1.297,0,2.594,0,3.891
			c0,5.864-0.039,11.729,0.044,17.594c0.115,8.152,0.333,16.312,0.333,24.465c0,6.567-0.119,13.362,0.468,19.906
			C6.002,125.169,7.357,138.074,8.74,138.074C8.948,138.074,8.565,138.074,8.74,138.074z M37.596,133.562
			c-5.687-0.035-11.517-0.077-17.133-1.092c-3.338-0.604-6.94-2.021-7.071-6.043c-0.14-4.277,1.319-8.86,2.307-12.979
			c0.39-1.629,0.796-3.254,1.219-4.874c0.118-0.45,0.225-0.915,0.411-1.343c0.567-1.31,1.563-0.701,1.734-2.047
			c0.75-5.904,0.612-11.967,0.479-17.906c-0.132-5.872-0.229-11.986-1.568-17.734c-0.158-0.677-0.145-1.767-0.901-1.799
			c-1.096-0.045-1.654-0.824-2.048-1.751c-0.873-2.051-1.686-4.128-2.466-6.215c-1.504-4.022-4.714-10.261-2.638-14.545
			c1.632-3.368,5.96-5.008,9.346-5.823c5.862-1.413,12.083-2.181,18.111-2.181c6.013,0,12.137,0.746,18.001,2.069
			c3.356,0.758,7.648,2.245,9.548,5.369c2.562,4.211-0.587,10.403-2.098,14.489c-0.772,2.088-1.583,4.162-2.439,6.218
			c-0.314,0.755-0.584,1.663-1.337,2.099c-0.409,0.236-0.892,0.309-1.356,0.258c-0.206,0.584-0.365,1.185-0.504,1.788
			c-1.35,5.876-1.448,12.124-1.582,18.123c-0.136,6.063-0.242,12.226,0.578,18.247c0.021,0.151,1.671,1.205,1.906,2.076
			c0.074,0.284,0.148,0.567,0.221,0.852c0.443,1.72,0.868,3.443,1.275,5.171c0.934,3.959,2.497,8.598,2.17,12.712
			c-0.29,3.65-3.557,5.095-6.661,5.705C49.385,133.53,43.396,133.534,37.596,133.562C37.596,133.562,51.134,133.496,37.596,133.562z
			 M18.732,106.269c-2.075,0-3.126,8.332-3.453,9.775c-0.812,3.592-2.713,8.785-1.237,12.413c1.165,2.865,4.581,3.546,7.301,3.972
			c5.692,0.89,11.58,0.992,17.328,0.938c5.142-0.049,10.369-0.146,15.456-0.986c2.356-0.389,5.235-0.985,6.606-3.177
			c2.169-3.468,0.005-9.286-0.798-12.884c-0.335-1.501-1.525-10.615-3.874-10.008c-0.743-5.015-0.727-10.129-0.691-15.188
			c0.043-6.247,0.18-12.575,1.102-18.764c0.156-1.046,0.373-4.787,1.555-4.802c1.873-0.021,2.515-3.027,3.07-4.418
			c1.808-4.529,4.071-9.473,4.595-14.366c0.509-4.75-3.555-6.718-7.149-8.27c-5.042-2.177-11.29-2.562-16.697-2.938
			c-6.083-0.423-12.175,0.163-18.176,1.173c-3.823,0.644-8.25,1.478-11.4,3.918c-4.973,3.85-1.933,10.415-0.223,15.178
			c0.901,2.512,1.867,5.003,2.893,7.467c0.366,0.877,0.69,1.956,1.741,2.204c1.267,0.299,1.118,0.457,1.467,1.943
			C18.962,72.925,21.445,106.269,18.732,106.269C18.22,106.269,18.823,106.269,18.732,106.269z M7.819,126.761
			c-1.872,0-1.72-6.865,0.684-5.117C9.725,122.535,9.804,126.761,7.819,126.761C7.583,126.761,7.867,126.761,7.819,126.761z
			 M8.321,121.765c-2.725-0.791-1.374,4.762-0.706,4.804C10.025,126.721,8.926,121.765,8.321,121.765
			C8.321,121.765,8.325,121.765,8.321,121.765z M68.895,85.556c-0.884,0-0.877-6.086,0-6.086
			C69.841,79.47,69.844,85.556,68.895,85.556C68.625,85.556,69.025,85.556,68.895,85.556z M68.895,79.658
			c-0.732,0-0.409,6.114,0.246,5.637C69.615,84.924,69.382,79.658,68.895,79.658C68.726,79.658,69.074,79.658,68.895,79.658z
			 M6.277,85.556c-0.946,0-0.945-6.086,0-6.086C7.221,79.47,7.229,85.556,6.277,85.556C6.159,85.556,6.557,85.556,6.277,85.556z
			 M6.277,79.658c-0.622,0-0.628,5.711,0,5.711C6.904,85.369,6.899,79.658,6.277,79.658C6.099,79.658,6.458,79.658,6.277,79.658z"/>
	</g>
	<g>
		<path fill="#C0C1C3" d="M8.331,121.673c0.65,0.5,1.617,4.992-0.018,4.992C6.271,126.666,5.823,121.073,8.331,121.673
			L8.331,121.673z"/>
		<path fill="#020204" d="M7.85,126.761c-1.498,0-2.11-6.314,0.481-5.184C9.278,121.578,10.215,127.112,7.85,126.761
			C7.614,126.761,7.85,126.761,7.85,126.761z M8.34,121.765c-2.641-0.771-1.5,4.809-0.49,4.809
			C9.99,126.843,8.956,121.765,8.34,121.765C8.34,121.765,8.438,121.765,8.34,121.765z"/>
	</g>
	<g>
		<path fill="#EB6059" d="M8.274,138.292c1.187-0.47,1.375,1.164,1.695,1.928c0.705,1.682,1.757,3.134,3.242,4.215
			C10.43,143.114,9.011,141.226,8.274,138.292C8.274,138.292,8.577,139.498,8.274,138.292z"/>
		<path fill="#020204" d="M13.17,144.521c-1.588-0.754-3.085-1.833-4.016-3.354c-0.266-0.499-1.429-2.862-0.727-3.012
			c1.277-0.271,1.627,2.1,2.042,2.939C10.998,142.22,13.013,143.623,13.17,144.521C11.333,143.648,13.17,144.521,13.17,144.521z
			 M8.388,138.359c0.637,2.514,1.737,4.266,4.057,5.572c-1.085-0.972-1.89-2.118-2.468-3.451
			C9.658,139.742,9.482,138.069,8.388,138.359C8.69,139.55,8.484,138.333,8.388,138.359z"/>
	</g>
	<g>
		<path fill="#EB6059" d="M65.995,138.386c0.159-0.288,0.71-0.195,0.942-0.094c-0.774,2.912-2.139,4.82-4.938,6.125
			C64.321,142.759,64.568,140.583,65.995,138.386C66.182,138.046,65.787,138.707,65.995,138.386z"/>
		<path fill="#020204" d="M62.039,144.501c0.505-1.055,2.101-2.104,2.74-3.424c0.42-0.911,0.762-3.485,2.271-2.848
			C66.282,141.199,64.887,143.176,62.039,144.501C62.039,144.501,63.835,143.666,62.039,144.501z M66.419,138.3
			c-0.623,0-0.905,1.518-1.058,1.896c-0.579,1.445-1.405,2.671-2.574,3.709c2.317-1.308,3.364-3.057,4.033-5.547
			C66.687,138.339,66.553,138.32,66.419,138.3C66.24,138.3,66.571,138.3,66.419,138.3z"/>
	</g>
	<g>
		<path fill="#959798" d="M62,144.417c5.527-2.633,5.749-9.188,6.52-14.586c0.538,1.266,0.195,2.52,0.004,3.818
			c-0.35,2.372-0.74,4.746-1.302,7.078c-0.824,3.416-2.845,5.854-6.25,6.74c-7.333,1.907-15.499,1.72-23.014,1.73
			c-7.662,0.011-15.871,0.156-23.371-1.65c-3.224-0.776-5.513-2.857-6.391-6.151c-0.625-2.34-1.022-4.744-1.383-7.137
			c-0.219-1.453-0.656-2.997-0.119-4.431c0.493,3.372,0.97,6.865,2.07,10.1c1.412,4.15,6.382,5.525,10.257,6.177
			c5.071,0.852,9.465,0.271,14.525,0.414c3.939,0.111,7.843,0.008,11.784-0.104c1.469-0.041,2.721,0.508,4.036,0.429
			C53.546,146.596,58.196,146.318,62,144.417C63.902,143.511,61.057,144.888,62,144.417z"/>
		<path fill="#020204" d="M37.622,149.292c-5.455,0-10.925-0.145-16.357-0.663c-2.857-0.272-6.187-0.426-8.824-1.692
			c-3.623-1.74-4.443-5.457-5.121-9.076c-0.465-2.482-1.633-5.929-0.587-8.408c0.489,3.494,0.983,7.127,2.128,10.473
			c1.741,5.093,8.653,6.003,13.244,6.509c2.924,0.323,5.044-0.188,7.792-0.111c2.497,0.071,5,0.206,7.498,0.206
			c2.36,0,4.722-0.112,7.081-0.178c3.092-0.086,5.462,0.434,8.646,0.083c4.253-0.468,11.095-1.288,13.005-5.875
			c1.423-3.418,1.843-7.427,2.346-11.077c1.061,2.237-0.011,5.362-0.416,7.634c-0.684,3.835-1.387,7.977-5.271,9.825
			c-2.423,1.153-5.419,1.341-8.043,1.612C49.062,149.142,43.33,149.292,37.622,149.292
			C25.853,149.292,49.391,149.292,37.622,149.292z M6.659,130.25c-0.652,2.482,0.509,5.897,0.988,8.315
			c0.672,3.396,1.631,6.81,5.092,8.301c2.62,1.129,5.762,1.312,8.562,1.579c5.42,0.516,10.878,0.66,16.321,0.66
			c5.177,0,10.364-0.137,15.523-0.588c3.042-0.266,6.316-0.486,9.197-1.59c3.295-1.262,4.437-4.443,5.103-7.626
			c0.535-2.553,1.912-6.466,1.116-9.085c-0.543,3.682-0.71,9.176-3.34,12.034c-3.183,3.46-8.622,4.045-13.026,4.47
			c-2.661,0.256-4.73-0.27-7.342-0.196c-2.341,0.066-4.689,0.192-7.032,0.192c-2.145,0-4.291-0.103-6.434-0.163
			c-2.599-0.073-4.864,0.465-7.383,0.255c-4.497-0.376-9.979-0.849-13.485-4.033C7.41,139.951,7.246,134.163,6.659,130.25
			C6.504,130.837,6.848,131.511,6.659,130.25z"/>
	</g>
	<g>
		<path fill="#020204" d="M15.981,40.623c0.983-5.594,2.13-11.163,3.412-16.695c1.192-5.155,2.155-11.75,5.275-16.15
			c-3.111,4.388-3.994,11.013-5.182,16.15c-0.7,3.115-1.349,6.24-1.957,9.375C17.124,35.399,17.033,39.014,15.981,40.623
			C16.471,37.833,15.981,40.623,15.981,40.623z"/>
	</g>
	<path fill="#020204" d="M10.319,44.468c0-5.132,0.441-10.281,1.186-15.356c0.511-3.478,1.186-6.935,2.075-10.336
		c0.89-3.402,1.885-8.059,3.907-10.818c-3.105,6.652-4.826,13.929-5.889,21.167c-0.504,3.438-0.847,6.901-1.038,10.371
		C10.482,40.93,10.775,43.235,10.319,44.468C10.319,44.416,10.319,44.468,10.319,44.468z"/>
	<path fill="#020204" d="M16.936,145.734c-1.777-4.621-1.228-10.178-1.228-15.035c0.595,2.323,0.139,5.734,0.207,8.27
		C15.975,141.169,16.964,143.741,16.936,145.734C16.926,145.708,16.936,145.734,16.936,145.734z"/>
	<path fill="#020204" d="M27.07,4.743c0.964-0.759,3.532-0.213,3.894-1.922C31.542,4.38,27.998,4.666,27.07,4.743
		C27.07,4.743,27.397,4.716,27.07,4.743z"/>
	<g>
		<path fill="#020204" d="M59.041,40.642c-0.943-5.593-2.054-11.162-3.298-16.695c-1.151-5.129-2.086-11.782-5.201-16.15
			c3.173,4.315,4.116,11.041,5.295,16.15c0.722,3.114,1.396,6.239,2.021,9.374C58.233,35.209,59.594,39.145,59.041,40.642
			C58.57,37.851,59.041,40.642,59.041,40.642z"/>
	</g>
	<path fill="#020204" d="M13.463,144.003c-2.407-1.466-3.078-4.811-3.542-7.358c-0.609-3.349-0.955-6.763-1.294-10.147
		C9.577,131.747,8.675,140.417,13.463,144.003C10.505,142.203,13.463,144.003,13.463,144.003z"/>
	<path fill="#020204" d="M8.213,121.654c-0.617-9.007-0.784-18.031-0.938-27.056c-0.108-6.363-0.193-12.727-0.251-19.091
		C6.97,69.5,6.206,62.787,7.016,56.904c-0.075,12.793,0.098,25.59,0.318,38.381C7.486,104.029,8.291,112.992,8.213,121.654
		C7.97,118.101,8.213,121.654,8.213,121.654z"/>
	<path fill="#020204" d="M7.053,54.021c-0.41-5.977,0.2-12.353,0.268-18.414c0.071-6.364-0.003-13.088,1.838-19.243
		c1.677-5.604,5.462-7.869,10.97-9.214c5.591-1.366,11.48-1.784,17.222-1.736c4.808,0.041,9.606,0.238,14.355,1.047
		c5.168,0.88,10.97,2.208,13.379,7.364c2.563,5.486,2.6,12.156,2.741,18.087c0.174,7.319,0.307,14.656,0.357,21.977
		c-0.628-6.511-0.263-13.417-0.367-20.029c-0.097-6.181-0.067-12.887-2.251-18.761c-2.028-5.453-6.822-7.184-12.187-8.278
		c-5.141-1.048-10.519-1.476-15.764-1.356c-5.284,0-10.605,0.3-15.793,1.356c-5.342,1.087-10.147,2.802-12.174,8.232
		C7.471,20.88,7.495,27.537,7.394,33.671C7.283,40.453,7.105,47.239,7.053,54.021C7.053,54.021,7.076,51.08,7.053,54.021z"/>
	<path fill="#020204" d="M61.73,144.003c2.968-2.228,3.462-6.624,3.946-10.099c0.699-5.017,1.158-10.055,1.447-15.111
		c0.277-4.854,0.481-9.703,0.587-14.562c0.344-15.858,0.578-31.729,0.484-47.591c0.718,7.681,0.027,15.944-0.06,23.729
		c-0.084,7.611-0.196,15.222-0.355,22.832c-0.097,4.646-0.279,9.275-0.519,13.916c-0.257,4.972-0.653,9.928-1.284,14.866
		C65.51,135.646,65.333,141.81,61.73,144.003C61.73,144.003,64.689,142.203,61.73,144.003z"/>
	<path fill="#020204" d="M58.293,145.734c-0.049-1.98,0.943-4.586,1.021-6.766c0.068-2.534-0.387-5.946,0.208-8.27
		C59.522,135.547,60.068,141.12,58.293,145.734C58.293,145.734,58.303,145.708,58.293,145.734z"/>
	<path fill="#020204" d="M48.141,4.743c-0.871-0.072-1.758-0.193-2.596-0.444c-0.284-0.084-1.899-1.478-1.315-1.478
		C44.612,4.525,47.155,3.976,48.141,4.743C47.811,4.716,48.141,4.743,48.141,4.743z"/>
	<path fill="#020204" d="M44.323,3.222c-4.506-0.132-8.947-0.137-13.453,0C34.683,2.506,40.51,2.512,44.323,3.222
		C44.29,3.221,44.323,3.222,44.323,3.222z"/>
	<path fill="#020204" d="M5.188,51.896c1.117-0.311,2.538-0.428,3.762-0.611C7.836,51.6,6.411,51.712,5.188,51.896L5.188,51.896z"/>
	<path fill="#020204" d="M66.429,51.332c1.066-0.185,2.415-0.176,3.578-0.236C68.934,51.276,67.594,51.27,66.429,51.332
		L66.429,51.332z"/>
	<path fill="#020204" d="M5.94,110.501c1.594-0.395,2.038-0.55,3.374-1.736C8.257,110.042,7.567,110.322,5.94,110.501L5.94,110.501z
		"/>
	<path fill="#020204" d="M67.51,111.05c-0.68-0.752-1.362-1.502-2.043-2.252c0.583,0.508,1.235,1.289,1.808,1.92
		c0.515,0.566,1.633,0.171,2.354,0.113C69.036,110.958,68.194,110.995,67.51,111.05L67.51,111.05z"/>
	<g>
		<path fill="#D8D9DA" d="M9.178,89.607c0.378-0.659,4.135,1.851,4.886,2.171c0.705,0.3,2.782,0.516,2.739,1.207
			c-0.06,0.967-0.12,1.933-0.18,2.899c-2.026,0-4.443-0.927-6.421-1.377c-0.651-0.147-1.344-0.153-1.344-1.016
			C8.859,92.401,8.591,90.581,9.178,89.607C9.481,89.08,8.859,90.136,9.178,89.607z"/>
		<path fill="#020204" d="M16.711,95.994c-1.538-0.423-3.137-0.664-4.698-0.995c-0.804-0.171-1.833-0.601-2.651-0.601
			c-1.127,0-0.561-3.781-0.391-4.488c0.378-1.58,4.129,1.35,5.086,1.761c0.662,0.283,2.89,0.535,2.851,1.172
			C16.842,93.892,16.777,94.943,16.711,95.994L16.711,95.994z M15.995,95.621c0.239,0.098,0.267-0.002,0.544,0.127
			c0.047-0.764,0.095-1.526,0.142-2.29c0.075-1.201-0.539-0.817-1.62-1.19c-1.985-0.684-3.868-1.741-5.644-2.852
			c-0.833,1.041-0.759,4.116,0.107,4.832C11.632,94.831,13.929,94.932,15.995,95.621C15.995,95.621,15.965,95.611,15.995,95.621z"/>
	</g>
	<path fill="#020204" d="M16.885,94.324c-2.478-0.081-5.077-1.293-7.344-2.207c-0.905-0.365-1.834-0.249-2.775-0.519
		c-0.703-0.201-1.079-0.669-1.79-0.667c0.455-0.18,0.533-0.046,0.967,0.216c1.023,0.62,2.197,0.292,3.225,0.716
		C11.68,92.9,14.458,93.535,16.885,94.324C14.61,94.25,16.885,94.324,16.885,94.324z"/>
	<g>
		<path fill="#D8D9DA" d="M58.363,92.544c1.008-0.04,7.386-2.124,7.386-3.299c0.007-0.004,1.721,5.088-0.131,5.088
			c-2.329,0.589-4.719,0.932-7.042,1.535C58.505,94.76,58.434,93.653,58.363,92.544C60.738,92.451,58.363,92.544,58.363,92.544z"/>
		<path fill="#020204" d="M58.488,95.99c-0.067-1.056-0.135-2.111-0.202-3.168c-0.041-0.639,2.203-0.899,2.867-1.186
			c0.832-0.358,4.436-3.027,4.962-2.098c0.433,0.716,0.791,4.401-0.049,4.788c-0.403,0.186-1.028,0.243-1.431,0.332
			C62.599,95.112,60.5,95.441,58.488,95.99L58.488,95.99z M58.462,92.634c0.066,1.037,0.133,2.074,0.199,3.111
			c2.121-0.576,4.339-0.901,6.479-1.396c1.686-0.389,1.593-3.73,0.652-4.966C63.657,90.704,61.025,92.453,58.462,92.634
			C58.462,92.634,60.866,92.464,58.462,92.634z"/>
	</g>
	<path fill="#020204" d="M58.462,94.324c2.385-0.736,5.075-1.41,7.521-2.449c0.917-0.389,1.989-0.143,2.947-0.562
		c0.607-0.267,0.723-0.606,1.304-0.381c-0.631-0.001-0.779,0.276-1.36,0.512c-1.061,0.43-2.185,0.242-3.225,0.675
		C63.438,93.038,60.892,94.245,58.462,94.324C58.462,94.324,60.738,94.25,58.462,94.324z"/>
	<g>
		<path fill="#C0C1C3" d="M7.445,53.851c1.037,0.183,0.55,2.594-0.508,2.883c-2.207,0.635-4.52,0.995-6.766,1.471
			C-0.628,53.599,3.901,51.785,7.445,53.851C7.445,53.851,4.885,52.359,7.445,53.851z"/>
		<path fill="#020204" d="M0.1,58.316c-0.375-1.787,0.318-3.993,1.906-4.974c1.374-0.848,4.848-0.812,5.919,0.544
			c1.263,1.598-0.815,2.919-2.044,3.193C3.958,57.508,2.028,57.907,0.1,58.316L0.1,58.316z M4.158,52.941
			c-2.69,0-4.314,2.641-3.911,5.152c1.343-0.288,6.902-0.637,7.438-2.115C8.535,53.632,6.222,52.941,4.158,52.941
			C2.893,52.941,5.166,52.941,4.158,52.941z"/>
	</g>
	<path fill="#020204" d="M64.752,44.468c-0.382-1.043-0.144-3.006-0.204-4.236c-0.179-3.717-0.536-7.426-1.076-11.107
		c-0.51-3.474-1.184-6.926-2.072-10.323c-0.963-3.685-2.85-7.373-3.731-10.882C62.88,19.078,64.752,32.229,64.752,44.468
		C64.752,44.468,64.752,44.416,64.752,44.468z"/>
	<g>
		<path fill="#C0C1C3" d="M74.296,54.417c0.648,1.127,1.013,2.489,0.788,3.787c-2.137-0.452-7.489-0.439-7.755-3.102
			C67.019,51.997,72.863,52.574,74.296,54.417C75.489,56.49,72.819,52.517,74.296,54.417z"/>
		<path fill="#020204" d="M75.155,58.316c-1.505-0.32-10.167-0.97-7.758-4.396c0.74-1.04,3.86-1.405,5.19-0.903
			C74.623,53.785,75.589,56.267,75.155,58.316L75.155,58.316z M67.67,53.908c-2.117,3.411,5.558,3.804,7.339,4.186
			c0.304-1.924-0.592-4.186-2.49-4.902C70.571,52.457,69.352,53.908,67.67,53.908L67.67,53.908z"/>
	</g>
</g>
</svg>
